<svg xmlns="http://www.w3.org/2000/svg" viewBox="0 0 32 32" enable-background="new 0 0 32 32"><path d="M16 .5c-8.6 0-15.5 6.9-15.5 15.5s6.9 15.5 15.5 15.5 15.5-6.9 15.5-15.5-6.9-15.5-15.5-15.5zm5.4 17.7l-.6.8s-.2.2-.4.5c-.6.7-2 2.1-2.6 2.6-1.3 1-2.4 1.4-3.2 1-.6-.2-1.4-1.1-1.7-2.1-.2-.4-.4-1-.5-1.7-1.3-4.5-1.4-4.9-1.7-5.6-.2-.3-.4-.7-.5-.8-.3-.3-.5-.3-1.2.1-.3.2-.6.3-.6.3-.1 0-.7-.7-.7-.8 0-.1 3.1-2.8 3.7-3.1.7-.5.9-.5 1.4-.6.3 0 .4 0 .7.1.2.1.5.3.6.5.5.5.6.8.9 2.5 0 .1.1.8.3 1.5.5 2.9.9 4 1.3 4.4.4.4.9 0 1.8-1.4 1.3-1.9 1.6-3.4 1-4.1-.2-.2-.2-.2-.7-.2-.3 0-.7 0-.9.1l-.4.1v-.2c.1-.3.5-1.2.8-1.6.5-.8 1.4-1.6 2.1-1.8.4-.1 1.2-.2 1.7-.2h.2c1.1.1 1.9.8 2.2 2 0 .1 0 .5.1.8 0 1.9-1 4.1-3.1 6.9z"/></svg>