<?xml version="1.0" encoding="utf-8"?>
<!-- Generator: Adobe Illustrator 19.1.0, SVG Export Plug-In . SVG Version: 6.00 Build 0)  -->
<!DOCTYPE svg PUBLIC "-//W3C//DTD SVG 1.1//EN" "http://www.w3.org/Graphics/SVG/1.1/DTD/svg11.dtd">
<svg version="1.1" id="Icons" xmlns="http://www.w3.org/2000/svg" xmlns:xlink="http://www.w3.org/1999/xlink" x="0px" y="0px"
	 viewBox="0 0 32 32" style="enable-background:new 0 0 32 32;" xml:space="preserve">
<g>
	<path d="M13.3,17.1C12.9,16.9,12.5,17,12,17H9v3h2.9c0.2,0,0.5-0.2,0.7-0.2c0.2,0,0.4-0.3,0.6-0.4c0.2-0.1,0.3-0.3,0.4-0.5
		c0.1-0.2,0.2-0.3,0.2-0.6C13.8,17.7,13.6,17.4,13.3,17.1z"/>
	<path d="M12.9,14.6c0.3-0.2,0.4-0.7,0.4-1.1c0-0.3,0-0.5-0.1-0.7c-0.1-0.2-0.2-0.3-0.4-0.4c-0.2-0.1-0.3-0.2-0.6-0.2
		c-0.2,0-0.4-0.1-0.6-0.1H9v3h2.8C12.2,15,12.6,14.8,12.9,14.6z"/>
	<path d="M21.2,14.8c-0.4,0-0.7,0.1-0.9,0.2c-0.2,0.1-0.4,0.3-0.6,0.5c-0.1,0.2-0.2,0.5-0.3,0.7c-0.1,0.2-0.1-0.2-0.1,0.8H23
		c-0.1-1-0.3-1.2-0.5-1.5C22.2,15.2,21.8,14.8,21.2,14.8z"/>
	<path d="M16,0.5C7.4,0.5,0.5,7.4,0.5,16S7.4,31.5,16,31.5S31.5,24.6,31.5,16S24.6,0.5,16,0.5z M19,11h4v1h-4V11z M15.9,19.8
		c-0.2,0.4-0.5,0.8-0.9,1.1c-0.4,0.3-0.8,0.6-1.3,0.7c-0.5,0.1-1,0.4-1.5,0.4H7V10h5.1c0.5,0,1,0.1,1.5,0.2c0.4,0.1,0.8,0.3,1.2,0.6
		c0.3,0.2,0.6,0.5,0.7,0.9c0.2,0.4,0.3,0.8,0.3,1.3c0,0.6-0.1,1.1-0.4,1.4c-0.3,0.4-0.7,0.7-1.2,0.9c0.7,0.2,1.2,0.6,1.6,1.1
		c0.3,0.5,0.5,1.1,0.5,1.9C16.3,18.9,16.2,19.4,15.9,19.8z M25.3,18h-6c0,1,0.2,1.3,0.6,1.6c0.3,0.3,0.8,0.5,1.5,0.5
		c0.5,0,0.9-0.1,1.2-0.4c0.3-0.2,0.5-0.8,0.6-0.8h2c-0.3,1-0.8,1.7-1.5,2.2c-0.7,0.4-1.5,0.7-2.4,0.7c-0.7,0-1.2-0.1-1.8-0.3
		c-0.5-0.2-1-0.5-1.3-0.9c-0.4-0.4-0.6-0.8-0.8-1.4c-0.2-0.5-0.3-1.1-0.3-1.8c0-0.6,0.1-1.2,0.3-1.7c0.2-0.5,0.5-1,0.9-1.4
		c0.4-0.4,0.8-0.7,1.3-0.9c0.5-0.2,1.1-0.3,1.7-0.3c0.7,0,1.3,0.1,1.8,0.4c0.5,0.3,1,0.6,1.3,1.1c0.3,0.5,0.6,1,0.7,1.6
		C25.3,16.8,25.3,17,25.3,18z"/>
</g>
</svg>
