<?xml version="1.0" encoding="utf-8"?>
<!-- Generator: Adobe Illustrator 19.1.0, SVG Export Plug-In . SVG Version: 6.00 Build 0)  -->
<!DOCTYPE svg PUBLIC "-//W3C//DTD SVG 1.1//EN" "http://www.w3.org/Graphics/SVG/1.1/DTD/svg11.dtd">
<svg version="1.1" id="Icons" xmlns="http://www.w3.org/2000/svg" xmlns:xlink="http://www.w3.org/1999/xlink" x="0px" y="0px"
	 viewBox="0 0 32 32" style="enable-background:new 0 0 32 32;" xml:space="preserve">
<path d="M16,0.5C7.4,0.5,0.5,7.4,0.5,16S7.4,31.5,16,31.5S31.5,24.6,31.5,16S24.6,0.5,16,0.5z M12,22H9V12h3V22z M10.9,11.1
	c-0.9,0-1.7-0.8-1.7-1.7c0-0.9,0.8-1.7,1.7-1.7c0.9,0,1.7,0.8,1.7,1.7C12.6,10.4,11.8,11.1,10.9,11.1z M23,22h-3v-4.7
	c0-1.1,0.1-2.5-1.4-2.5c-1.5,0-1.6,1.2-1.6,2.4V22h-3V12h3v2h0.1c0.4-1,1.2-1.7,2.6-1.7c3,0,3.3,1.8,3.3,4.4V22z"/>
</svg>
