<svg xmlns="http://www.w3.org/2000/svg" viewBox="0 0 32 32" enable-background="new 0 0 32 32"><path d="M13.3 17.1c-.4-.2-.8-.1-1.3-.1h-3v3h2.9l.7-.2c.2 0 .4-.3.6-.4.2-.1.3-.3.4-.5.1-.2.2-.3.2-.6 0-.6-.2-.9-.5-1.2zM12.9 14.6c.3-.2.4-.7.4-1.1 0-.3 0-.5-.1-.7-.1-.2-.2-.3-.4-.4-.2-.1-.3-.2-.6-.2l-.6-.1h-2.6v3h2.8c.4-.1.8-.3 1.1-.5zM21.2 14.8c-.4 0-.7.1-.9.2-.2.1-.4.3-.6.5l-.3.7c-.1.2-.1-.2-.1.8h3.7c-.1-1-.3-1.2-.5-1.5-.3-.3-.7-.7-1.3-.7zM16 .5c-8.6 0-15.5 6.9-15.5 15.5s6.9 15.5 15.5 15.5 15.5-6.9 15.5-15.5-6.9-15.5-15.5-15.5zm3 10.5h4v1h-4v-1zm-3.1 8.8c-.2.4-.5.8-.9 1.1-.4.3-.8.6-1.3.7-.5.1-1 .4-1.5.4h-5.2v-12h5.1c.5 0 1 .1 1.5.2.4.1.8.3 1.2.6.3.2.6.5.7.9.2.4.3.8.3 1.3 0 .6-.1 1.1-.4 1.4-.3.4-.7.7-1.2.9.7.2 1.2.6 1.6 1.1.3.5.5 1.1.5 1.9 0 .6-.1 1.1-.4 1.5zm9.4-1.8h-6c0 1 .2 1.3.6 1.6.3.3.8.5 1.5.5.5 0 .9-.1 1.2-.4.3-.2.5-.8.6-.8h2c-.3 1-.8 1.7-1.5 2.2-.7.4-1.5.7-2.4.7-.7 0-1.2-.1-1.8-.3-.5-.2-1-.5-1.3-.9-.4-.4-.6-.8-.8-1.4-.2-.5-.3-1.1-.3-1.8 0-.6.1-1.2.3-1.7.2-.5.5-1 .9-1.4.4-.4.8-.7 1.3-.9.5-.2 1.1-.3 1.7-.3.7 0 1.3.1 1.8.4.5.3 1 .6 1.3 1.1.3.5.6 1 .7 1.6.2.6.2.8.2 1.8z"/></svg>